<?xml version="1.0" encoding="UTF-8"?>
<svg width="268px" height="303px" viewBox="0 0 268 303" version="1.1" xmlns="http://www.w3.org/2000/svg" xmlns:xlink="http://www.w3.org/1999/xlink">
    <title>48ED9625-9D0B-40A9-A1A9-80B50E7D5860</title>
    <g id="Page-1" stroke="none" stroke-width="1" fill="none" fill-rule="evenodd">
        <g id="AKF-Home---desktop" transform="translate(-931.000000, -2214.000000)">
            <g id="ico/4" transform="translate(931.000000, 2214.000000)">
                <polygon id="Path-4-Copy-12" fill="#2DFFE3" fill-rule="nonzero" transform="translate(249.000403, 253.500000) scale(-1, -1) translate(-249.000403, -253.500000) " points="268.000403 204 268.000403 277.033613 238.000403 277.033 238.000403 303 230.000403 303 230.000403 269.033613 260.000403 269.033 260.000403 204"></polygon>
                <polygon id="Path-4-Copy-2" fill="#2DFFE3" fill-rule="nonzero" points="151 0 151 8 7.99940272 8 8 151 0 151 0 0"></polygon>
                <path d="M145.002698,136.957754 L145.066751,137 L145.066751,136.920003 C146.524635,136.069692 193.801197,100.20385 193.998769,75.6868664 C194.126875,58.9458183 184.241054,51 172.520248,51 C153.042709,51 145.344615,69.3949288 145.002698,70.2389473 C144.658977,69.3949288 136.956372,51 117.475224,51 C105.757125,51 95.8740105,58.9458183 96.0012144,75.6868664 C96.1933736,100.20385 143.480762,136.069692 144.933232,136.920003 L145.002698,136.957754 Z" id="Fill-1" fill="#2DFFE3"></path>
                <path d="M141.10788,141.267837 C135.373061,136.953035 118.528616,122.98237 106.87988,108.204262 L122.087098,108.204262 C123.072148,108.204262 123.994784,107.730466 124.57098,106.933873 L130.538266,98.6632323 L139.276175,119.655849 C139.75287,120.798747 140.868175,121.541993 142.104689,121.541993 L142.146298,121.541993 C143.398189,121.523909 144.514398,120.747208 144.963957,119.577184 L149.63503,107.410382 L150.134339,108.216017 C150.694252,109.114783 151.676589,109.663628 152.735811,109.663628 L174.167207,109.663628 C162.55827,123.936292 146.571334,137.161903 141.10788,141.267837 M95.0357614,83.358885 C94.9814886,76.1560946 96.9380205,70.3466635 100.698216,66.5608132 C103.913875,63.3210946 108.343434,61.6085557 113.50658,61.6085557 C131.025816,61.6085557 137.972725,78.3324838 138.259466,79.0449868 C138.724402,80.2005437 139.846943,80.9591605 141.093407,80.9609689 L141.098834,80.9609689 C142.344393,80.9609689 143.465125,80.2086814 143.935489,79.0549329 C144.225848,78.3415257 151.246025,61.6085557 168.693802,61.6085557 C173.856948,61.6085557 178.287411,63.3210946 181.502166,66.559909 C185.261457,70.3457593 187.220702,76.1560946 187.167334,83.358885 C187.118489,89.426915 183.74363,96.4714719 178.805716,103.540442 L154.43907,103.540442 L151.587039,98.9426275 C150.973757,97.9552503 149.851216,97.4091186 148.697016,97.5085796 C147.538293,97.618891 146.542389,98.3747952 146.126298,99.4607293 L141.989811,110.235981 L134.089511,91.253382 C133.662566,90.2289329 132.716411,89.5155257 131.614675,89.3889389 C130.497561,89.2641605 129.42477,89.7406695 128.777116,90.6376275 L120.51952,102.081077 L102.407807,102.081077 C98.0126205,95.5030826 95.0809886,89.0046575 95.0357614,83.358885 M240.174602,131.971843 C239.90957,126.338729 228.75743,77.4481844 227.510061,72.0031425 C226.574761,67.0635437 222.286311,58.1672024 212.820243,59.7902263 C209.907607,60.2947653 207.560311,61.7685976 206.02982,64.0571066 C203.039393,68.5310467 204.063339,74.6551365 204.337416,76.0050946 L207.071857,103.540442 L186.154243,103.540442 C190.838884,96.0338431 193.24588,89.2976156 193.292011,83.405903 C193.358043,74.5339749 190.784611,67.2181605 185.849411,62.2460108 C181.521161,57.886903 175.428143,55.4862743 168.693802,55.4862743 C153.856543,55.4862743 145.181048,65.1801126 141.10788,71.4841365 C137.052802,65.1783042 128.398111,55.4862743 113.50658,55.4862743 C106.771334,55.4862743 100.67922,57.886903 96.3500659,62.246915 C91.4148659,67.2190647 88.8432432,74.5357832 88.9110841,83.4077114 C88.9554068,88.9151425 91.0467159,95.1567772 95.1470205,102.081077 L75.1827977,102.081077 L77.8638705,75.0701605 C78.1388523,73.7220108 79.1646068,67.5970168 76.1723705,63.1230766 C74.6427841,60.8354719 72.2963932,59.3607353 69.3837568,58.8552922 C59.9231159,57.2331725 55.6310477,66.1295138 54.7165523,70.9588012 C53.4456659,76.5150587 42.293525,125.405604 42.0284932,131.04143 C41.7128068,137.894298 44.0067341,150.108119 51.5117477,161.986484 C57.3388295,171.205622 71.0354568,190.699089 76.8281659,198.897394 L73.208175,198.893777 L73.2063659,198.893777 C71.5148659,198.893777 70.1444795,200.262723 70.143575,201.951753 C70.1417659,203.643496 71.5121523,205.015154 73.2036523,205.016963 L86.6777614,205.028717 L98.9108341,205.036855 L98.9135477,205.036855 C100.603239,205.036855 101.97453,203.668813 101.975434,201.979783 C101.976339,200.288041 100.607761,198.917286 98.9153568,198.916382 L86.6831886,198.906436 L84.3367977,198.904628 C82.670625,196.556442 63.6453205,169.721843 56.6893659,158.716023 C49.4756159,147.299699 47.925225,136.125699 48.1468386,131.32625 C48.3286523,127.474394 55.7450205,93.9297892 60.7091659,72.2237653 C62.3147341,64.0932743 67.7266295,64.7822683 68.3408159,64.8898671 C69.606275,65.1086814 70.4737341,65.6240707 71.0725432,66.5137952 C72.5541886,68.7136934 72.1299568,72.6198012 71.845025,73.9281665 C71.8178886,74.0502323 71.7970841,74.1741066 71.7835159,74.2997892 L67.2237023,120.26437 C67.2119432,120.396382 67.2209886,120.523873 67.2246068,120.651364 C66.9161568,122.253592 66.9731432,123.742795 67.2056114,124.836867 C67.2200841,124.910107 67.2399841,124.985154 67.2607886,125.058394 L78.6083114,163.863586 C79.0831977,165.489322 80.7918841,166.417927 82.4064977,165.944131 C84.0301568,165.46943 84.9627432,163.770454 84.4869523,162.14743 L73.1792295,123.473346 C73.0516886,122.748184 72.6934886,119.169394 77.5617523,117.601526 C81.9316114,116.191891 83.5570795,119.180244 83.9713614,120.213735 L94.3935341,152.270041 C94.8132432,153.558514 96.0624205,154.411166 97.4210477,154.383137 C97.7385432,154.389466 105.363861,154.279154 113.438739,163.251448 C120.070866,170.626035 122.284289,190.418789 122.674148,198.93537 L118.989934,198.931753 L118.988125,198.931753 C117.29753,198.931753 115.926239,200.300699 115.925334,201.991538 C115.92443,203.681472 117.293911,205.054035 118.985411,205.055843 L132.45952,205.067598 L132.462234,205.067598 C134.15283,205.067598 135.523216,203.697747 135.525025,202.008717 C135.52593,200.316975 134.156448,198.945316 132.464043,198.944412 L128.802443,198.940795 C128.552789,193.440598 126.951743,169.116035 117.991316,159.158172 C110.672639,151.02316 103.28793,148.947137 99.585625,148.429035 L89.7369341,118.144945 C88.3158932,114.219849 83.3960705,109.287484 75.6812023,111.774011 C75.1439023,111.946711 74.640975,112.139304 74.1642795,112.347268 L74.5749432,108.204262 L99.177675,108.204262 C103.010234,113.539897 107.893875,119.228166 113.852116,125.260029 C125.84458,137.403322 138.318261,146.93531 139.479698,147.618879 C139.510452,147.636059 139.54392,147.654143 139.57377,147.672226 C139.612666,147.694831 139.650657,147.719244 139.689552,147.738232 C140.13278,147.983268 140.622139,148.101717 141.112402,148.101717 C141.669602,148.101717 142.228611,147.949813 142.725207,147.655047 C142.916066,147.542023 143.090643,147.410011 143.249843,147.260819 C145.984284,145.310478 157.357134,136.392436 168.351884,125.260029 C173.769207,119.774298 178.293743,114.575196 181.955343,109.663628 L207.680616,109.663628 L208.038816,113.280394 C207.563025,113.073334 207.059193,112.880741 206.522798,112.708041 C198.807025,110.211568 193.888107,115.153879 192.432693,119.173915 L182.618375,149.36216 C178.915166,149.879358 171.531361,151.956286 164.213589,160.092202 C155.254066,170.050969 153.652116,194.371915 153.401557,199.873017 L149.740861,199.876634 C148.050266,199.877538 146.67988,201.250101 146.680784,202.940939 C146.681689,204.630873 148.053884,205.999819 149.743575,205.999819 L149.746289,205.999819 L163.220398,205.98716 C164.911898,205.986256 166.282284,204.614598 166.280475,202.922855 C166.27957,201.233825 164.90828,199.864879 163.217684,199.864879 L163.215875,199.864879 L159.529852,199.868496 C159.920616,191.351915 162.134039,171.558256 168.76707,164.185478 C176.832902,155.217705 184.471789,155.293657 184.751293,155.31355 C186.109016,155.387693 187.382616,154.516053 187.809561,153.203166 L198.23083,121.148669 C198.646016,120.115178 200.269675,117.126825 204.642248,118.533747 C209.304275,120.038322 209.192111,123.354897 209.019343,124.423651 L197.716143,163.080556 C197.241257,164.702675 198.172939,166.40346 199.795693,166.877256 C201.418448,167.351957 203.121707,166.419735 203.59388,164.797616 L214.940498,125.992424 C214.962207,125.919184 214.981202,125.844137 214.997484,125.769993 C215.229048,124.677729 215.286939,123.18943 214.978489,121.589011 C214.982107,121.460616 214.992961,121.331316 214.979393,121.199304 L210.416866,75.2311066 C210.404202,75.1063281 210.384302,74.9842623 210.35807,74.8621964 C210.083993,73.6460587 209.638052,69.6811784 211.121507,67.4577713 C211.72122,66.5626216 212.592298,66.0436156 213.864089,65.8248012 C219.675793,64.8193401 221.325684,72.2997174 221.516543,73.2572563 C226.45717,94.8638192 233.874443,128.405711 234.055352,132.255759 C234.27787,137.056113 232.729289,148.2274 225.514634,159.650053 C218.559584,170.65316 199.54423,197.474196 197.868107,199.835945 L195.52262,199.837753 L183.290452,199.847699 C181.598952,199.849508 180.228566,201.222071 180.230375,202.912909 C180.23128,204.601939 181.60257,205.971789 183.292261,205.971789 L183.29588,205.971789 L195.528048,205.961843 L209.003061,205.949184 C210.694561,205.94828 212.063139,204.576622 212.062234,202.885783 C212.060425,201.195849 210.690943,199.826903 209.001252,199.826903 L208.999443,199.826903 L205.375834,199.83052 C211.169448,191.630406 224.86517,172.139651 230.693157,162.918705 C238.19817,151.036723 240.490289,138.822903 240.174602,131.971843" id="Fill-3" fill="#01013F"></path>
            </g>
        </g>
    </g>
</svg>