<?xml version="1.0" encoding="UTF-8"?>
<svg width="32px" height="32px" viewBox="0 0 32 32" version="1.1" xmlns="http://www.w3.org/2000/svg" xmlns:xlink="http://www.w3.org/1999/xlink">
    <title>38DD8E22-6840-4E2B-ADEC-5E254F62BBB4</title>
    <defs>
        <filter id="filter-1">
            <feColorMatrix in="SourceGraphic" type="matrix" values="0 0 0 0 1.000000 0 0 0 0 1.000000 0 0 0 0 1.000000 0 0 0 1.000000 0"></feColorMatrix>
        </filter>
    </defs>
    <g id="Page-1" stroke="none" stroke-width="1" fill="none" fill-rule="evenodd">
        <g id="AKF-Home---desktop" transform="translate(-1370.000000, -6076.000000)">
            <g id="Group-6" transform="translate(1284.000000, 6076.000000)">
                <g id="facebook" transform="translate(86.000000, 0.000000)" filter="url(#filter-1)">
                    <g>
                        <path d="M32,16 C32,7.1625 24.8375,0 16,0 C7.1625,0 0,7.1625 0,16 C0,24.8375 7.1625,32 16,32 C16.09375,32 16.1875,32 16.28125,31.99375 L16.28125,19.54375 L12.84375,19.54375 L12.84375,15.5375 L16.28125,15.5375 L16.28125,12.5875 C16.28125,9.16875 18.36875,7.30625 21.41875,7.30625 C22.88125,7.30625 24.1375,7.4125 24.5,7.4625 L24.5,11.0375 L22.4,11.0375 C20.74375,11.0375 20.41875,11.825 20.41875,12.98125 L20.41875,15.53125 L24.3875,15.53125 L23.86875,19.5375 L20.41875,19.5375 L20.41875,31.38125 C27.10625,29.4625 32,23.30625 32,16 Z" id="Path" fill="#000000" fill-rule="nonzero"></path>
                    </g>
                </g>
            </g>
        </g>
    </g>
</svg>