<?xml version="1.0" encoding="UTF-8"?>
<svg width="33px" height="32px" viewBox="0 0 33 32" version="1.1" xmlns="http://www.w3.org/2000/svg" xmlns:xlink="http://www.w3.org/1999/xlink">
    <title>6390E2F1-91BC-459F-882B-418BF5F90CC9</title>
    <g id="Page-1" stroke="none" stroke-width="1" fill="none" fill-rule="evenodd">
        <g id="AKF-Home---desktop" transform="translate(-1284.000000, -6076.000000)" fill="#FFFFFF" fill-rule="nonzero">
            <g id="ico/insta" transform="translate(1284.000000, 6076.000000)">
                <path d="M31.9343262,9.40625 C31.859375,7.70629881 31.5844726,6.53759763 31.1906738,5.52490237 C30.7844238,4.44995119 30.1594238,3.48754881 29.3405762,2.6875 C28.5405274,1.875 27.5717774,1.24365237 26.5092774,0.84375 C25.4907226,0.449951188 24.328125,0.175048813 22.6281738,0.100097625 C20.9155274,0.0187988125 20.3718262,0 16.0280762,0 C11.6843262,0 11.140625,0.0187988125 9.43432619,0.09375 C7.734375,0.168701187 6.56567381,0.443847625 5.55322263,0.837402375 C4.47802737,1.24365237 3.515625,1.86865237 2.71557619,2.6875 C1.90307619,3.48754881 1.27197262,4.45629881 0.871826187,5.51879881 C0.478027375,6.53759763 0.203125,7.69995119 0.128173812,9.39990237 C0.046875,11.1125488 0.0280761875,11.65625 0.0280761875,16 C0.0280761875,20.34375 0.046875,20.8874512 0.121826187,22.59375 C0.196777375,24.2937012 0.471923812,25.4624024 0.865722625,26.4750976 C1.27197263,27.5500488 1.90307619,28.5124512 2.71557619,29.3125 C3.515625,30.125 4.484375,30.7563476 5.546875,31.15625 C6.56567381,31.5500488 7.72802737,31.8249512 9.42822263,31.8999024 C11.1342774,31.9750976 11.6782226,31.9936524 16.0219726,31.9936524 C20.3657226,31.9936524 20.9094238,31.9750976 22.6157226,31.8999024 C24.3156738,31.8249512 25.484375,31.5500488 26.4968262,31.15625 C28.6469726,30.3249512 30.3469238,28.625 31.1782226,26.4750976 C31.5717774,25.4562988 31.8469238,24.2937012 31.921875,22.59375 C31.9968262,20.8874512 32.015625,20.34375 32.015625,16 C32.015625,11.65625 32.0092774,11.1125488 31.9343262,9.40625 Z M29.0532226,22.46875 C28.984375,24.03125 28.7219238,24.875 28.5031738,25.4375 C27.9655762,26.8312988 26.859375,27.9375 25.4655762,28.4750976 C24.9030762,28.6938476 24.0532226,28.9562988 22.4968262,29.0249024 C20.8093262,29.1000976 20.3032226,29.1186524 16.0344238,29.1186524 C11.765625,29.1186524 11.2531738,29.1000976 9.57177737,29.0249024 C8.00927737,28.9562988 7.16552737,28.6938476 6.60302737,28.4750976 C5.90942381,28.21875 5.27807619,27.8125 4.765625,27.28125 C4.234375,26.7624512 3.828125,26.1374512 3.57177737,25.4438476 C3.35302737,24.8813476 3.09057619,24.03125 3.02197262,22.4750976 C2.94677737,20.7875976 2.92822262,20.28125 2.92822262,16.0124512 C2.92822262,11.7436524 2.94677737,11.2312012 3.02197262,9.55004881 C3.09057619,7.98754881 3.35302737,7.14379881 3.57177737,6.58129881 C3.828125,5.88745119 4.234375,5.25634762 4.77197262,4.74365237 C5.29052737,4.21240237 5.91552737,3.80615237 6.609375,3.55004881 C7.171875,3.33129881 8.02197262,3.06884762 9.578125,3 C11.265625,2.92504881 11.7719726,2.90625 16.0405274,2.90625 C20.3156738,2.90625 20.8217774,2.92504881 22.5031738,3 C24.0656738,3.06884762 24.9094238,3.33129881 25.4719238,3.55004881 C26.1655274,3.80615237 26.796875,4.21240237 27.3093262,4.74365237 C27.8405762,5.26245119 28.2468262,5.88745119 28.5031738,6.58129881 C28.7219238,7.14379881 28.984375,7.99365237 29.0532226,9.55004881 C29.1281738,11.2375488 29.1469726,11.7436524 29.1469726,16.0124512 C29.1469726,20.28125 29.1281738,20.78125 29.0532226,22.46875 Z" id="Shape"></path>
                <path d="M16.0280762,7.78125 C11.4907226,7.78125 7.80932619,11.4624024 7.80932619,16 C7.80932619,20.5375976 11.4907226,24.21875 16.0280762,24.21875 C20.5656738,24.21875 24.2468262,20.5375976 24.2468262,16 C24.2468262,11.4624024 20.5656738,7.78125 16.0280762,7.78125 Z M16.0280762,21.3312988 C13.0844726,21.3312988 10.6967774,18.9438476 10.6967774,16 C10.6967774,13.0561524 13.0844726,10.6687012 16.0280762,10.6687012 C18.9719238,10.6687012 21.359375,13.0561524 21.359375,16 C21.359375,18.9438476 18.9719238,21.3312988 16.0280762,21.3312988 L16.0280762,21.3312988 Z" id="Shape"></path>
                <path d="M26.4907226,7.45629881 C26.4907226,8.51586913 25.6315918,9.375 24.5717774,9.375 C23.512207,9.375 22.6530762,8.51586913 22.6530762,7.45629881 C22.6530762,6.39648438 23.512207,5.53759763 24.5717774,5.53759763 C25.6315918,5.53759763 26.4907226,6.39648438 26.4907226,7.45629881 L26.4907226,7.45629881 Z" id="Path"></path>
            </g>
        </g>
    </g>
</svg>