<?xml version="1.0" encoding="UTF-8"?>
<svg width="264px" height="261px" viewBox="0 0 264 261" version="1.1" xmlns="http://www.w3.org/2000/svg" xmlns:xlink="http://www.w3.org/1999/xlink">
    <title>BADC99C1-5857-42D5-94BA-8D1767BB50DA</title>
    <defs>
        <polygon id="path-1" points="0 0.938 177.817 0.938 177.817 143 0 143"></polygon>
    </defs>
    <g id="Page-1" stroke="none" stroke-width="1" fill="none" fill-rule="evenodd">
        <g id="AKF-Home---desktop" transform="translate(-931.000000, -2825.000000)">
            <g id="ico/6" transform="translate(931.000000, 2825.000000)">
                <polygon id="Path-4-Copy-2" fill="#2DFFE3" fill-rule="nonzero" points="151 0 151 8 8 8 8 261 0 261 0 0"></polygon>
                <polygon id="Path-4-Copy-3" fill="#2DFFE3" fill-rule="nonzero" transform="translate(247.000000, 217.000000) scale(-1, -1) translate(-247.000000, -217.000000) " points="264 200 264 208 238 208 238 234 230 234 230 200"></polygon>
                <path d="M76.5824027,126.7368 C89.3204027,126.7368 100.407403,134.1288 106.163403,145.0388 L106.163403,90.3028 L106.150403,90.3028 C105.902403,73.8118 93.0764027,60.5238 77.2814027,60.5238 C61.4874027,60.5238 48.6614027,73.8118 48.4134027,90.3028 L48.4014027,90.3028 L48.4014027,142.6188 C54.4484027,133.0498 64.8084027,126.7368 76.5824027,126.7368" id="Fill-1" fill="#2DFFE3"></path>
                <path d="M72.3466027,145.2934 C73.2166027,145.3154 74.0886027,145.4114 74.9376027,145.5794 C75.1026027,145.6104 75.2646027,145.6264 75.4266027,145.6264 C76.6636027,145.6264 77.7666027,144.7044 78.0036027,143.3844 C78.2726027,141.8904 77.3346027,140.4524 75.9096027,140.1704 C74.7826027,139.9484 73.6256027,139.8214 72.4726027,139.7924 C71.0026027,139.7394 69.8206027,140.9574 69.7846027,142.4774 C69.7506027,143.9954 70.8966027,145.2564 72.3466027,145.2934" id="Fill-3" fill="#01013F"></path>
                <path d="M55.9906027,162.0249 C55.9906027,156.7759 58.2746027,151.9299 62.2546027,148.7329 C63.4066027,147.8079 63.6236027,146.0799 62.7416027,144.8739 C61.8586027,143.6689 60.2116027,143.4419 59.0606027,144.3649 C53.7726027,148.6149 50.7396027,155.0499 50.7396027,162.0249 C50.7396027,168.2729 53.2686027,174.2679 57.6786027,178.4749 C58.1826027,178.9559 58.8156027,179.1919 59.4466027,179.1919 C60.1596027,179.1919 60.8706027,178.8889 61.3876027,178.2929 C62.3646027,177.1689 62.2866027,175.4299 61.2146027,174.4069 C57.8946027,171.2399 55.9906027,166.7269 55.9906027,162.0249" id="Fill-5" fill="#01013F"></path>
                <path d="M79.6518027,150.1782 C78.3768027,149.4502 76.7838027,149.9432 76.0898027,151.2782 C75.3958027,152.6122 75.8648027,154.2822 77.1378027,155.0102 C79.7598027,156.5072 81.3888027,159.3792 81.3888027,162.5042 C81.3888027,167.2072 77.7378027,171.0322 73.2498027,171.0322 C70.1098027,171.0322 67.3048027,169.1942 65.9278027,166.2352 C65.2938027,164.8672 63.7228027,164.3032 62.4168027,164.9672 C61.1138027,165.6342 60.5728027,167.2802 61.2078027,168.6472 C63.4718027,173.5132 68.0868027,176.5362 73.2498027,176.5362 C80.6328027,176.5362 86.6388027,170.2412 86.6388027,162.5042 C86.6388027,157.3642 83.9618027,152.6412 79.6518027,150.1782" id="Fill-7" fill="#01013F"></path>
                <g id="Group-11" transform="translate(40.000403, 52.062000)">
                    <mask id="mask-2" fill="white">
                        <use xlink:href="#path-1"></use>
                    </mask>
                    <g id="Clip-10"></g>
                    <path d="M172.5659,126.834 C172.5659,132.714 167.0669,137.497 160.3069,137.497 L48.5809,137.497 C57.2559,131.609 63.0129,121.385 63.0129,109.772 C63.0129,109.727 63.0099,109.683 63.0089,109.638 C63.0099,109.626 63.0129,109.615 63.0129,109.604 L63.0129,34.386 L151.9299,34.386 L151.9299,41.54 C151.9299,43.059 153.1059,44.291 154.5559,44.291 C156.0059,44.291 157.1809,43.059 157.1809,41.54 L157.1809,15.194 L160.1499,15.194 C166.9099,15.194 172.4099,19.978 172.4099,25.857 L172.4099,109.821 C169.2609,107.034 165.0019,105.311 160.3069,105.311 L157.1809,105.311 L157.1809,61.349 C157.1809,59.829 156.0059,58.598 154.5559,58.598 C153.1059,58.598 151.9299,59.829 151.9299,61.349 L151.9299,108.062 C151.9299,109.582 153.1059,110.813 154.5559,110.813 L160.3069,110.813 C166.4309,110.813 171.5059,114.744 172.4099,119.855 L172.4099,120.653 C172.4099,120.973 172.4709,121.273 172.5659,121.559 L172.5659,126.834 Z M5.2509,109.772 C5.2509,94.601 17.0289,82.258 31.5059,82.258 C45.9839,82.258 57.7619,94.601 57.7619,109.772 C57.7619,124.942 45.9839,137.285 31.5059,137.285 C17.0289,137.285 5.2509,124.942 5.2509,109.772 L5.2509,109.772 Z M177.6599,119.424 L177.6599,25.857 C177.6599,16.943 169.8059,9.691 160.1499,9.691 L154.3989,9.691 C152.9479,9.691 151.7729,10.923 151.7729,12.442 C151.7729,12.817 151.8449,13.173 151.9739,13.499 C151.9499,13.65 151.9299,13.803 151.9299,13.962 L151.9299,28.883 L62.6209,28.883 C60.2669,13.113 47.1309,0.938 31.5059,0.938 C14.4999,0.938 0.4309,15.361 0.0179,33.145 C0.0059,33.251 -0.0001,33.359 -0.0001,33.469 L-0.0001,42.757 C-0.0001,44.277 1.1749,45.508 2.6259,45.508 C4.0759,45.508 5.2509,44.277 5.2509,42.757 L5.2509,33.737 C5.2569,33.662 5.2619,33.588 5.2629,33.512 C5.4869,18.585 17.2599,6.441 31.5059,6.441 C45.7529,6.441 57.5249,18.585 57.7499,33.512 C57.7509,33.588 57.7549,33.662 57.7619,33.735 L57.7619,91.548 C52.1129,82.641 42.4549,76.755 31.5059,76.755 C20.5579,76.755 10.8999,82.641 5.2509,91.548 L5.2509,63.688 C5.2509,62.169 4.0759,60.937 2.6259,60.937 C1.1749,60.937 -0.0001,62.169 -0.0001,63.688 L-0.0001,109.604 C-0.0001,109.615 0.0029,109.626 0.0039,109.638 C0.0029,109.683 -0.0001,109.727 -0.0001,109.772 C-0.0001,127.435 13.3049,141.9 29.9629,142.747 C30.2949,142.906 30.6609,143 31.0499,143 L160.3069,143 C169.9619,143 177.8179,135.747 177.8179,126.834 L177.8179,121.477 C177.8179,120.779 177.7529,120.098 177.6599,119.424 L177.6599,119.424 Z" id="Fill-9" fill="#01013F" mask="url(#mask-2)"></path>
                </g>
            </g>
        </g>
    </g>
</svg>