<?xml version="1.0" encoding="UTF-8"?>
<svg width="264px" height="236px" viewBox="0 0 264 236" version="1.1" xmlns="http://www.w3.org/2000/svg" xmlns:xlink="http://www.w3.org/1999/xlink">
    <title>38BBF591-2A27-401C-90C9-E37C67BB8FB2</title>
    <g id="Page-1" stroke="none" stroke-width="1" fill="none" fill-rule="evenodd">
        <g id="AKF-Home---desktop" transform="translate(-232.000000, -1284.000000)" fill-rule="nonzero">
            <g id="ico/1" transform="translate(232.000000, 1284.000000)">
                <polygon id="Path-4" fill="#2DFFE3" points="151 0 151 8 8 8 8 151 0 151 0 0"></polygon>
                <polygon id="Path-4-Copy-5" fill="#2DFFE3" transform="translate(247.000000, 219.000000) scale(-1, -1) translate(-247.000000, -219.000000) " points="264 202 264 210 238 210 238 236 230 236 230 202"></polygon>
                <g id="Ask-a-Doctor" transform="translate(41.000000, 38.000000)">
                    <path d="M60.8287379,100.113398 C60.6718447,98.3021359 60.5747573,96.4730097 60.5747573,94.6213592 C60.5747573,68.1840777 76.838835,45.5596117 99.9052427,36.1794175 L104.456699,32.7029126 C97.9456311,15.9829126 86.0326214,5.92932039 61.3957282,6.05669903 C36.7634951,6.18640777 16.5001942,27.4780583 16.5001942,52.6516505 C16.5001942,67.9067961 23.5075728,81.5067961 34.4815534,90.4333981 L21.7227184,97.0314563 C21.7227184,97.0314563 20.1421359,98.0302913 20.5141748,99.4469903 C21.0034951,101.359223 22.6702913,101.359223 22.6702913,101.359223 L52.6718447,101.359223 C52.6718447,101.359223 54.343301,101.359223 55.2419417,101.359223 C56.921165,101.359223 58.5840777,101.273786 60.2221359,101.106796 L60.8287379,100.113398 Z" id="Path" fill="#2DFFE3"></path>
                    <g id="Group" fill="#01013F" stroke="#01013F" stroke-width="0.2">
                        <path d="M115.476505,116.455922 L115.476505,117.802718 C115.476505,124.22835 125.867184,124.15068 125.867184,117.802718 L125.867184,116.455922 C125.867184,110.107961 115.476505,110.027961 115.476505,116.455922 Z" id="Path"></path>
                        <path d="M136.577864,80.9149515 C135.784854,73.0601942 129.51767,66.3976699 119.601553,66.3976699 C109.28932,66.3976699 105.798835,71.2365049 102.943689,75.52 C100.323883,80.7565049 107.939417,85.6745631 111.27301,80.7565049 C113.415922,77.1860194 116.271068,76.2345631 119.60233,76.2345631 C123.092816,76.2345631 126.582524,78.9312621 126.582524,82.4225243 C126.582524,87.1813592 123.728155,89.0066019 118.887767,90.7518447 C116.984854,91.4664078 115.477282,92.8947573 115.477282,95.7506796 C115.477282,99.9557282 115.477282,94.9576699 115.477282,102.573204 C115.477282,109.315728 125.551845,108.920388 125.551845,102.573204 L125.551845,98.4473786 C133.881942,95.1153398 137.292427,87.4990291 136.577864,80.9149515 Z" id="Path"></path>
                        <path d="M178.029515,148.900194 C177.962718,148.855922 177.892816,148.818641 177.822136,148.781359 L164.973204,142.137476 C178.454369,129.683107 186.104078,112.293592 186.104078,93.7957282 C186.104078,92.8885437 186.085437,91.984466 186.049709,91.0866019 C185.985243,89.5386408 184.652427,88.3440777 183.130874,88.3968932 C181.582913,88.4605825 180.379806,89.7669903 180.441942,91.3149515 C180.476117,92.1382524 180.490874,92.9646602 180.490874,93.7957282 C180.490874,112.010874 172.381359,129.052427 158.238447,140.553786 C157.504466,141.150291 157.12,142.076117 157.217864,143.017476 C157.314175,143.958835 157.879612,144.789126 158.72,145.221748 L175.071068,153.67767 C175.155728,153.745243 175.245825,153.831456 175.312621,153.909126 C175.261359,154.024854 175.215534,154.059806 175.178252,154.072233 L120.219806,154.072233 C108.567767,154.072233 97.2629126,150.743301 87.5285437,144.444272 C86.2299029,143.605437 84.4908738,143.975146 83.6481553,145.276117 C82.807767,146.576311 83.1790291,148.313786 84.4784466,149.154951 C95.1238835,156.043495 107.482718,159.683107 120.219806,159.683107 L175.306408,159.683107 C176.80699,159.683107 179.885049,158.725437 180.80466,155.13165 C180.918835,154.706796 180.979417,154.271068 180.979417,153.834563 C180.979417,150.842718 178.332427,149.089709 178.029515,148.900194 Z" id="Path"></path>
                        <path d="M59.9572816,93.7957282 C59.9572816,80.3448544 64.2866019,67.6209709 72.4815534,57.001165 C72.4831068,57.001165 72.4846602,56.9980583 72.487767,56.9965049 C84,42.08 101.398835,33.5231068 120.219806,33.5231068 C148.196505,33.5231068 172.295146,52.4924272 178.824078,79.6520388 C179.186796,81.1596117 180.703689,82.0869903 182.208155,81.7250485 C183.714175,81.3631068 184.643107,79.847767 184.280388,78.3409709 C177.141748,48.6485437 150.8,27.912233 120.219029,27.912233 C112.904078,27.912233 105.798058,29.1153398 99.096699,31.3700971 C90.9273786,12.4434951 72.5739806,0.317669903 51.8135922,0.317669903 C23.4112621,0.317669903 0.302912621,23.4252427 0.302912621,51.8283495 C0.302912621,65.9836893 6.03728155,79.3118447 16.1615534,88.9996117 L7.0423301,93.7149515 C6.97165049,93.752233 6.90330097,93.7918447 6.83417476,93.8337864 C5.17747573,94.8792233 3.78563107,96.9895146 4.40699029,99.3203883 C5.11456311,102.080777 7.42990291,103.340583 9.2792233,103.340583 L51.8143689,103.340583 C52.8807767,103.340583 53.9526214,103.297087 55.0182524,103.231845 C57.0617476,117.622524 63.7592233,130.837282 74.4054369,141.143301 C74.9514563,141.672233 75.6551456,141.934757 76.3596117,141.934757 C77.0912621,141.934757 77.8236893,141.648155 78.3743689,141.080388 C79.4532039,139.966602 79.4229126,138.188738 78.3106796,137.112233 C66.4730097,125.654369 59.9557282,110.271845 59.9572816,93.7957282 Z M51.8143689,97.728932 L11.4990291,97.728932 L22.3805825,92.103301 C23.2217476,91.6667961 23.7856311,90.8380583 23.8827184,89.8974757 C23.9798058,88.9576699 23.5968932,88.0302913 22.8605825,87.432233 C12.0939806,78.6765049 5.9168932,65.6978641 5.9168932,51.8275728 C5.9168932,26.518835 26.5087379,5.92854369 51.8151456,5.92854369 C70.2368932,5.92854369 86.5266019,16.6423301 93.8524272,33.3848544 C83.8493204,37.744466 74.9724272,44.5949515 68.0497087,53.561165 C68.0473786,53.5634951 68.0458252,53.5666019 68.0442718,53.5681553 C59.0827184,65.1805825 54.3448544,79.0912621 54.3448544,93.7957282 C54.3448544,95.0873786 54.3914563,96.3697087 54.464466,97.6466019 C53.5813592,97.6963107 52.6959223,97.728932 51.8143689,97.728932 Z" id="Shape"></path>
                    </g>
                </g>
            </g>
        </g>
    </g>
</svg>