<?xml version="1.0" encoding="UTF-8"?>
<svg width="264px" height="236px" viewBox="0 0 264 236" version="1.1" xmlns="http://www.w3.org/2000/svg" xmlns:xlink="http://www.w3.org/1999/xlink">
    <title>B7A29456-3480-49CA-BA67-B309EACB4D2C</title>
    <g id="Page-1" stroke="none" stroke-width="1" fill="none" fill-rule="evenodd">
        <g id="AKF-Home---desktop" transform="translate(-232.000000, -1907.000000)" fill-rule="nonzero">
            <g id="ico/3" transform="translate(232.000000, 1907.000000)">
                <g fill="#2DFFE3">
                    <polygon id="Path-4-Copy-4" points="151 0 151 8 8 8 8 151 0 151 0 0"></polygon>
                    <polygon id="Path-4-Copy-5" transform="translate(247.000000, 219.000000) scale(-1, -1) translate(-247.000000, -219.000000) " points="264 202 264 210 238 210 238 236 230 236 230 202"></polygon>
                </g>
                <path d="M218.376042,84.2277083 L168.764667,84.2277083 L115.317667,84.2277083 L105.053708,84.2277083 C106.196875,85.8751667 106.869,87.87175 106.869,90.0274583 C106.869,93.483875 105.146333,96.533375 102.518792,98.381125 C100.859458,99.5464583 98.8407083,100.238375 96.66125,100.238375 C94.4754583,100.238375 92.4590833,99.5464583 90.7981667,98.381125 C88.1722083,96.533375 86.4479583,93.4846667 86.4479583,90.0274583 C86.4479583,87.8709583 87.1224583,85.8751667 88.2648333,84.2277083 L65.707875,84.2277083 C60.6902917,84.2277083 56.621125,88.2960833 56.621125,93.31525 C56.621125,98.333625 60.6902917,102.399625 65.707875,102.399625 L115.317667,102.399625 L115.317667,171.972083 C120.047875,169.756208 125.540458,173.104167 127.41275,175.3335 C128.905042,177.106833 129.581125,180.207 129.581125,182.7055 C129.581125,186.161917 127.860042,189.209833 125.230917,191.059958 C123.570792,192.2245 121.555208,192.917208 119.374167,192.917208 C117.925417,192.917208 116.564542,192.588667 115.317667,192.044792 L115.317667,211.427958 C115.317667,216.35925 119.31875,220.360333 124.250833,220.360333 C129.1845,220.360333 133.183208,216.358458 133.183208,211.427958 L133.183208,155.865625 L150.89675,155.865625 L150.89675,211.427958 C150.89675,216.35925 154.900208,220.360333 159.830708,220.360333 C164.765167,220.360333 168.763875,216.358458 168.763875,211.427958 L168.763875,130.40325 C167.495625,130.970875 166.103083,131.3105 164.621083,131.3105 C162.437667,131.3105 160.4205,130.619375 158.761167,129.454042 C156.134417,127.606292 154.41175,124.556792 154.41175,121.10275 C154.41175,118.601875 155.312667,116.313958 156.802583,114.539833 C158.676458,112.311292 161.481333,110.892625 164.621875,110.892625 C166.098333,110.892625 167.498,111.214833 168.764667,111.780875 L168.764667,102.398833 L218.376042,102.398833 C223.392042,102.398833 227.462,98.3328333 227.462,93.3144583 C227.462,88.2960833 223.392042,84.2277083 218.376042,84.2277083 Z" id="Path" fill="#2DFFE3"></path>
                <circle id="Oval" fill="#2DFFE3" cx="142.055417" cy="54.7840417" r="19.624625"></circle>
                <path d="M211.652417,102.713125 C218.239083,102.713125 223.597083,97.3535417 223.597083,90.7660833 C223.597083,84.1794167 218.239083,78.820625 211.652417,78.820625 L204.558292,78.820625 C195.933083,66.1887917 184.069167,56.158375 170.197583,49.7989167 C168.7615,49.1386667 167.062583,49.7727917 166.4055,51.2065 C165.747625,52.643375 166.377792,54.3415 167.813875,54.999375 C179.536875,60.3724167 189.719292,68.5622083 197.510083,78.820625 L102.86475,78.820625 C100.009208,75.9864583 96.1664583,74.3738333 92.106,74.3738333 C88.04475,74.3738333 84.1988333,75.9864583 81.3440833,78.820625 L58.9834583,78.820625 C52.398375,78.820625 47.0387917,84.1794167 47.0387917,90.7660833 C47.0387917,95.9570417 50.3725,100.371375 55.0045417,102.01725 C52.7087083,109.762917 51.5330833,117.817333 51.5330833,126.001583 C51.5330833,155.624958 66.6935,182.4585 92.084625,197.783583 C92.5469583,198.060667 93.0575833,198.193667 93.5610833,198.193667 C94.5277083,198.193667 95.47375,197.702042 96.0120833,196.812208 C96.8275,195.45925 96.3920833,193.70175 95.0399167,192.885542 C71.3785833,178.607042 57.252875,153.603833 57.252875,126.002375 C57.252875,118.040583 58.4482917,110.217333 60.775,102.713917 L84.12125,102.713917 C86.5287083,104.19275 89.2662917,104.975708 92.106,104.975708 C94.94175,104.975708 97.680125,104.19275 100.087583,102.713917 L105.734542,102.713917 L105.734542,171.627708 C103.164792,174.439708 101.701792,178.124917 101.701792,181.937583 C101.701792,185.753417 103.164792,189.437833 105.734542,192.246667 L105.734542,208.880375 C105.734542,215.381542 111.024458,220.67225 117.527208,220.67225 C124.029167,220.67225 129.319083,215.381542 129.319083,208.880375 L129.319083,190.988708 C131.247583,188.3675 132.306042,185.196875 132.306042,181.936792 C132.306042,178.676708 131.246792,175.505292 129.319083,172.884875 L129.319083,156.178333 L141.312042,156.178333 L141.312042,208.878792 C141.312042,215.379958 146.60275,220.67225 153.107083,220.67225 C159.60825,220.67225 164.898958,215.379958 164.898958,208.878792 L164.898958,204.414583 C180.577917,198.709833 193.95075,188.574125 203.632042,175.001 C213.754292,160.810375 219.103583,143.865542 219.103583,126.000792 C219.103583,122.549125 218.889042,119.120417 218.463125,115.804917 C218.263625,114.238208 216.825958,113.137 215.264,113.330958 C213.6965,113.53125 212.588167,114.964958 212.790042,116.531667 C213.18825,119.64925 213.383792,122.74625 213.383792,126.000792 C213.383792,158.6705 194.4685,186.674125 164.898958,198.308458 L164.898958,134.98225 C170.601333,132.670583 174.422708,127.143958 174.422708,120.831208 C174.422708,114.520042 170.601333,108.992625 164.898958,106.680958 L164.898958,102.712333 L211.652417,102.712333 L211.652417,102.713125 Z M58.9834583,96.994125 C55.5531667,96.994125 52.759375,94.2003333 52.759375,90.766875 C52.759375,87.3342083 55.5531667,84.542 58.9834583,84.542 L77.6960833,84.542 C77.6272083,84.7327917 77.57575,84.9330833 77.5124167,85.1278333 C77.4482917,85.3360417 77.3770417,85.5410833 77.3200417,85.7540417 C77.2575,85.983625 77.21475,86.2195417 77.1640833,86.4530833 C77.122125,86.6494167 77.0706667,86.8425833 77.0374167,87.0389167 C76.9883333,87.3104583 76.9598333,87.5859583 76.9257917,87.859875 C76.9075833,88.0229583 76.8767083,88.18525 76.8640417,88.3483333 C76.8236667,88.7885 76.8054583,89.2310417 76.8054583,89.6751667 C76.8054583,90.3092917 76.8474167,90.937875 76.922625,91.5609167 C76.9503333,91.7754583 77.0049583,91.9820833 77.041375,92.1934583 C77.107875,92.598 77.1712083,93.00175 77.2709583,93.398375 C77.3350833,93.64775 77.4253333,93.8884167 77.5005417,94.1354167 C77.6074167,94.481375 77.7071667,94.8305 77.8377917,95.16775 C77.93675,95.4234583 78.06025,95.6672917 78.1726667,95.91825 C78.3151667,96.23175 78.4489583,96.5492083 78.61125,96.854 C78.6357917,96.899125 78.6532083,96.9474167 78.6769583,96.9949167 L58.9834583,96.9949167 L58.9834583,96.994125 Z M86.6110417,97.5134583 C84.052375,95.714 82.5244583,92.7840417 82.5244583,89.6751667 C82.5244583,89.3949167 82.537125,89.113875 82.5616667,88.836 C82.7358333,86.8877083 83.5021667,85.0265 84.769625,83.5199583 C86.5952083,81.3420833 89.2694583,80.0952083 92.1067917,80.0952083 C94.9409583,80.0952083 97.6144167,81.3420833 99.442375,83.5215417 C100.887958,85.2434167 101.685958,87.4284167 101.685958,89.6751667 C101.685958,90.4517917 101.589375,91.2173333 101.4065,91.959125 C100.9505,93.806875 99.9419167,95.4947083 98.5097917,96.7882917 C98.2255833,97.046375 97.9207917,97.2894167 97.6009583,97.5134583 C94.3559167,99.7934583 89.8537083,99.791875 86.6110417,97.5134583 Z M119.065417,172.580083 C121.077833,173.025 122.9145,174.1175 124.284083,175.721417 C125.767667,177.458333 126.583875,179.6655 126.583875,181.937583 C126.583875,184.207292 125.767667,186.416042 124.286458,188.15375 C122.4585,190.29125 119.80325,191.51675 117.0055,191.51675 C114.609125,191.51675 112.309333,190.615833 110.530458,188.981833 C108.527542,187.139625 107.423958,184.637958 107.423958,181.938375 C107.423958,179.241167 108.527542,176.7395 110.530458,174.895708 C112.309333,173.259333 114.608333,172.357601 117.0055,172.357601 C117.704542,172.356042 118.394083,172.433625 119.065417,172.580083 Z M123.5985,208.880375 C123.5985,212.227542 120.87675,214.951667 117.528,214.951667 C114.180042,214.951667 111.454333,212.227542 111.454333,208.880375 L111.454333,196.192333 C111.477292,196.201833 111.501042,196.205792 111.521625,196.2145 C111.976833,196.39025 112.441542,196.54225 112.914167,196.674458 C112.949,196.683167 112.983042,196.690292 113.017875,196.699 C114.3075,197.048125 115.64225,197.238125 117.0055,197.238125 C118.246833,197.238125 119.466792,197.072667 120.650333,196.781333 C120.699417,196.77025 120.746125,196.752833 120.797583,196.740167 C121.22825,196.629333 121.65575,196.509792 122.076125,196.360958 C122.303333,196.281 122.521042,196.183625 122.747458,196.094958 C122.997625,195.992833 123.253333,195.898625 123.497167,195.783042 C123.531208,195.767208 123.567625,195.756125 123.599292,195.741083 L123.599292,208.880375 L123.5985,208.880375 Z M159.179167,208.880375 C159.179167,212.227542 156.455833,214.951667 153.107875,214.951667 C149.757542,214.951667 147.034208,212.227542 147.034208,208.880375 L147.034208,153.318833 C147.034208,151.74025 145.754083,150.460125 144.173917,150.460125 L126.460375,150.460125 C124.880208,150.460125 123.5985,151.74025 123.5985,153.318833 L123.5985,168.1325 C123.566833,168.116667 123.530417,168.105583 123.496375,168.08975 C123.2565,167.976542 123.007125,167.883917 122.760917,167.784167 C122.52975,167.692333 122.3065,167.591792 122.072167,167.51025 C121.659708,167.365375 121.240917,167.247417 120.816583,167.138167 C120.759583,167.122333 120.703375,167.103333 120.646375,167.089875 C119.463625,166.800125 118.24525,166.634667 117.004708,166.634667 C115.639875,166.634667 114.300375,166.823875 113.007583,167.17775 C112.9775,167.183292 112.945833,167.190417 112.918125,167.197542 C112.44075,167.331333 111.973667,167.482542 111.513708,167.659875 C111.494708,167.667792 111.474125,167.672542 111.454333,167.679667 L111.454333,99.8528333 C111.454333,98.2734583 110.174208,96.994125 108.594042,96.994125 L105.533458,96.994125 C105.557208,96.9474167 105.574625,96.899125 105.598375,96.8532083 C105.761458,96.5484167 105.896833,96.229375 106.040125,95.9135 C106.150958,95.6649167 106.27525,95.4210833 106.374208,95.1669583 C106.504833,94.8289167 106.604583,94.4805833 106.709083,94.1306667 C106.785875,93.88525 106.876125,93.6469583 106.94025,93.3975833 C107.038417,93.0009583 107.100958,92.5964167 107.170625,92.1926667 C107.204667,91.9812917 107.260083,91.7754583 107.286208,91.560125 C107.363792,90.9370833 107.40575,90.3085 107.40575,89.674375 C107.40575,89.23025 107.385167,88.7877083 107.347958,88.3475417 C107.332125,88.1797083 107.302833,88.0150417 107.283042,87.8487917 C107.249792,87.5780417 107.222083,87.3065 107.174583,87.0389167 C107.13975,86.8370417 107.086708,86.639125 107.043958,86.4364583 C106.994083,86.2100417 106.952125,85.9804583 106.891167,85.75325 C106.834958,85.5387083 106.760542,85.3289167 106.692458,85.1151667 C106.633875,84.9235833 106.584,84.7288333 106.515125,84.5404167 L211.653208,84.5404167 C215.085083,84.5404167 217.878875,87.332625 217.878875,90.7652917 C217.878875,94.19875 215.085083,96.9925417 211.653208,96.9925417 L162.039458,96.9925417 C160.460083,96.9925417 159.179958,98.271875 159.179958,99.85125 L159.179958,105.531458 C159.162542,105.531458 159.143542,105.531458 159.12375,105.531458 C150.68775,105.531458 143.824,112.394417 143.824,120.830417 C143.824,129.268 150.68775,136.130958 159.12375,136.130958 C159.143542,136.130958 159.162542,136.130958 159.179958,136.130958 L159.179958,208.880375 L159.179167,208.880375 Z M168.702917,120.832 C168.702917,125.270083 165.687458,129.095417 161.3705,130.134083 C160.5915,130.3225 159.856833,130.41275 159.122167,130.41275 C153.84175,130.41275 149.541417,126.114 149.541417,120.832 C149.541417,115.55 153.84175,111.25125 159.122167,111.25125 C159.856833,111.25125 160.590708,111.342292 161.3705,111.5315 C165.68825,112.569375 168.702917,116.393917 168.702917,120.832 Z" id="Shape" fill="#01013F"></path>
                <path d="M84.7617083,65.5792083 C85.3863333,65.5792083 86.0172917,65.3749583 86.5445417,64.9545833 C94.0345,58.9743333 102.393708,54.5156667 111.441667,51.650625 C111.372792,52.363125 111.331625,53.0843333 111.331625,53.81425 C111.331625,66.214125 121.416667,76.3015417 133.816542,76.3015417 C146.215625,76.3015417 156.301458,66.214125 156.301458,53.81425 C156.301458,41.4151667 146.215625,31.32775 133.816542,31.32775 C124.454292,31.32775 116.418083,37.0815833 113.040042,45.23575 C102.041417,48.2266667 91.9270833,53.3360833 82.974125,60.4848333 C81.739125,61.47125 81.5380417,63.2699167 82.522875,64.5033333 C83.0889167,65.2126667 83.9209583,65.5792083 84.7617083,65.5792083 Z M133.817333,37.0499167 C143.060833,37.0499167 150.581667,44.57075 150.581667,53.8150417 C150.581667,63.0609167 143.060833,70.58175 133.817333,70.58175 C124.57225,70.58175 117.051417,63.0609167 117.051417,53.8150417 C117.051417,44.57075 124.57225,37.0499167 133.817333,37.0499167 Z" id="Shape" fill="#01013F"></path>
            </g>
        </g>
    </g>
</svg>