<?xml version="1.0" encoding="UTF-8"?>
<svg width="268px" height="238px" viewBox="0 0 268 238" version="1.1" xmlns="http://www.w3.org/2000/svg" xmlns:xlink="http://www.w3.org/1999/xlink">
    <title>3E9A5EE2-EC40-4222-821F-84010FED5F1B</title>
    <defs>
        <filter id="filter-1">
            <feColorMatrix in="SourceGraphic" type="matrix" values="0 0 0 0 0.176471 0 0 0 0 1.000000 0 0 0 0 0.890196 0 0 0 1.000000 0"></feColorMatrix>
        </filter>
    </defs>
    <g id="Page-1" stroke="none" stroke-width="1" fill="none" fill-rule="evenodd">
        <g id="AKF-Home---desktop" transform="translate(-232.000000, -3150.000000)">
            <g id="ico/7" transform="translate(232.000000, 3150.000000)">
                <polygon id="Path-4-Copy-9" fill="#2DFFE3" fill-rule="nonzero" points="151 0 151 8 8 8 8 151 0 151 0 0"></polygon>
                <polyline id="Path-4-Copy-10" stroke="#2DFFE3" stroke-width="8" transform="translate(249.000000, 219.000000) scale(-1, -1) translate(-249.000000, -219.000000) " points="234 234 234 204 264 204"></polyline>
                <g id="ying-yang" transform="translate(67.000000, 33.000000)">
                    <g filter="url(#filter-1)" id="Group-3">
                        <g transform="translate(104.165317, 81.964854) scale(-1, 1) rotate(-8.000000) translate(-104.165317, -81.964854) translate(47.665317, 7.964854)">
                            <path d="M0.157398059,77.3067236 C0.157398059,35.0424317 34.3258103,0.658088373 76.3242886,0.658088373 C77.5172877,0.658088373 78.7474268,0.770863351 80.0631492,0.891438328 C80.064441,0.891438328 80.0654098,0.891763328 80.0667017,0.891763328 L80.0670246,0.891763328 C98.4183483,2.55088801 112.793762,18.5688349 112.793762,37.3587063 C112.793762,57.5954774 96.4334612,74.0593242 76.3239656,74.0593242 C64.7243582,74.0593242 53.8827284,78.5985983 45.7962353,86.8412467 C37.8017848,94.9896451 33.3992498,105.791018 33.3992498,117.255716 C33.3992498,128.016789 37.3628877,138.330662 44.5599601,146.298035 C44.9145657,146.690635 45.2756304,147.075435 45.6425083,147.45341 C18.7499698,135.645187 0.157398059,108.636393 0.157398059,77.3067236" id="Fill-1" fill="#000000"></path>
                        </g>
                    </g>
                    <ellipse id="Oval" fill="#FFFFFF" cx="81.1363636" cy="44.8479532" rx="13.3636364" ry="13.3450292"></ellipse>
                    <path d="M139.92092,44.9956739 C139.220827,43.9353833 137.793893,43.6415679 136.730961,44.3395248 C135.669192,45.0374816 135.374967,46.4635899 136.073897,47.5238805 C143.760965,59.1870775 147.824296,72.7641398 147.824296,86.7894737 C147.824296,105.890964 140.375631,123.848547 126.850578,137.354769 C119.448432,144.74777 110.707735,150.316328 101.178562,153.849082 C109.907629,146.584988 115.480463,135.597682 115.480463,123.323628 C115.480463,101.502313 97.8664937,83.7491224 76.2147794,83.7491224 C57.5076421,83.7491224 42.2870147,68.3917475 42.2870147,49.5143934 C42.2870147,30.6370393 57.5076421,15.2785031 76.2147794,15.2785031 C97.0815059,15.2785031 116.866693,24.3426524 130.497574,40.1471378 C131.326755,41.109877 132.780436,41.2178805 133.744517,40.3886936 C134.707436,39.5606682 134.81559,38.1090106 133.98641,37.1462714 C119.480994,20.326787 98.4235446,10.6808135 76.2147794,10.6808135 C55.857423,10.6808135 36.71767,18.5975727 22.322734,32.972466 C7.92779764,47.3473589 0,66.4604623 0,86.7894737 C0,88.6174009 0.0651249335,90.4650704 0.195374801,92.280223 C0.2814326,93.4914861 1.29203224,94.4159015 2.48986569,94.4159015 C2.54452419,94.4159015 2.60034556,94.4147403 2.65616693,94.4100947 C3.9237774,94.3195114 4.87855536,93.2197356 4.78900865,91.9538904 C4.66689918,90.2467411 4.60410029,88.5093974 4.60410029,86.7894737 C4.60410029,67.6879838 12.0539274,49.7303999 25.5789807,36.2241787 C33.1043991,28.7080769 42.0113968,23.0744845 51.7266415,19.553344 C43.1557349,26.6815628 37.6829147,37.4656362 37.6829147,49.5143934 C37.6829147,70.9269219 54.9677697,88.3468118 76.2147794,88.3468118 C95.3277845,88.3468118 110.876362,104.037487 110.876362,123.323628 C110.876362,142.608607 95.3277845,158.299283 76.2147794,158.299283 C59.5707071,158.299283 43.3592504,152.471749 30.5645267,141.888585 C17.9349417,131.441297 9.21285206,116.898012 6.00544923,100.93907 C5.75541593,99.6941281 4.5413011,98.8881677 3.29578667,99.1366916 C2.0479465,99.387538 1.24086265,100.598801 1.49089565,101.843743 C4.90530288,118.83278 14.1867691,134.312095 27.6269272,145.429468 C41.246179,156.69433 58.5007974,162.896973 76.2147794,162.896973 C96.5721358,162.896973 115.711889,154.981375 130.106825,140.60532 C144.501761,126.230427 152.429559,107.118485 152.429559,86.7894737 C152.429559,71.8629508 148.103402,57.4114101 139.92092,44.9956739 Z" id="Path" stroke="#01013F" fill="#01013F" fill-rule="nonzero"></path>
                    <path d="M90.4271331,124.092426 C90.4271331,117.904881 85.3857657,112.871694 79.1895935,112.871694 C72.9945841,112.871694 67.9532164,117.904881 67.9532164,124.092426 C67.9532164,130.279971 72.9945841,135.313158 79.1895935,135.313158 C85.3857657,135.313158 90.4271331,130.279971 90.4271331,124.092426 L90.4271331,124.092426 Z M72.5584795,124.092426 C72.5584795,120.441217 75.5332936,117.470545 79.1907563,117.470545 C82.8470562,117.470545 85.8218699,120.441217 85.8218699,124.092426 C85.8218699,127.744796 82.8470562,130.715468 79.1907563,130.715468 C75.5332936,130.715468 72.5584795,127.744796 72.5584795,124.092426 L72.5584795,124.092426 Z" id="Shape" stroke="#01013F" fill="#01013F" fill-rule="nonzero"></path>
                    <path d="M67.9543792,46.6505633 C67.9543792,52.836947 72.9945841,57.8712952 79.1907563,57.8712952 C85.3869286,57.8712952 90.4271331,52.836947 90.4271331,46.6505633 C90.4271331,40.4630185 85.3869286,35.4286705 79.1907563,35.4286705 C72.9945841,35.4286705 67.9543792,40.4630185 67.9543792,46.6505633 L67.9543792,46.6505633 Z M85.8218699,46.6505633 C85.8218699,50.3017723 82.8470562,53.2724443 79.1895935,53.2724443 C75.5332936,53.2724443 72.5584795,50.3017723 72.5584795,46.6505633 C72.5584795,42.9981932 75.5332936,40.0275214 79.1895935,40.0275214 C82.8470562,40.0275214 85.8218699,42.9981932 85.8218699,46.6505633 Z" id="Shape" stroke="#01013F" fill="#01013F" fill-rule="nonzero"></path>
                </g>
            </g>
        </g>
    </g>
</svg>