<?xml version="1.0" encoding="UTF-8"?>
<svg width="268px" height="301px" viewBox="0 0 268 301" version="1.1" xmlns="http://www.w3.org/2000/svg" xmlns:xlink="http://www.w3.org/1999/xlink">
    <title>36887C25-787B-400D-AF99-098AA3E1EE66</title>
    <g id="Page-1" stroke="none" stroke-width="1" fill="none" fill-rule="evenodd">
        <g id="AKF-Home---desktop" transform="translate(-232.000000, -2518.000000)">
            <g id="ico/5" transform="translate(232.000000, 2518.000000)">
                <polygon id="Path-4-Copy-6" fill="#2DFFE3" fill-rule="nonzero" points="151 0 151 8 8 8 8 151 0 151 0 0"></polygon>
                <polygon id="Path-4-Copy-8" fill="#2DFFE3" fill-rule="nonzero" transform="translate(249.000000, 251.500000) scale(-1, -1) translate(-249.000000, -251.500000) " points="268 202 268 275.033613 238 275.033 238 301 230 301 230 267.033613 260 267.033 260 202"></polygon>
                <path d="M77.0112219,71.585605 C77.013754,71.5425591 77.0238824,45.5740821 77.0238824,45.5740821 C77.0238824,44.1755132 76.048176,42.5929444 73.2079925,43.0951463 L48.1147815,48.332394 C46.8428182,48.5974215 46.0063779,49.7773848 46.123699,51.0417518 C46.1169467,51.1185591 46.10091,71.3273298 46.10091,71.3273298 C45.4324329,71.1821554 44.72091,71.1078802 43.9663412,71.1222288 C41.6418641,71.1745591 39.1173503,72.0169077 36.8578641,73.4931279 C34.5983779,74.9693481 32.8123962,76.9418619 31.8299375,79.0494215 C30.6786714,81.520761 30.7267815,84.0250178 31.9641393,85.9181921 C33.1668916,87.7598802 35.3478824,88.8039536 37.9728366,88.8039536 C38.0479558,88.8039536 38.1239191,88.8031096 38.1990384,88.8014215 C40.5226714,88.7490912 43.0471852,87.9067426 45.3075155,86.4305224 C49.0339375,83.9963206 51.1761026,80.4387059 51.1516256,77.2836967 C51.1541577,77.2406509 51.1642861,52.8690912 51.1642861,52.8690912 L71.9588182,48.5290545 L71.9588182,65.629238 C71.2903412,65.4840637 70.5779742,65.4089444 69.8242494,65.4241371 C67.4997723,65.4764674 64.9752586,66.318816 62.7166164,67.7950362 C60.4562861,69.2704123 58.6703045,71.2437701 57.6878457,73.3504857 C56.5357357,75.8226692 56.5838457,78.3260821 57.8212035,80.2201004 C59.0695338,82.1301554 61.2842861,83.0957334 63.8493136,83.0957334 C66.1552219,83.0957334 68.7455705,82.3133114 71.1662678,80.7324307 C74.8935338,78.2982288 77.035699,74.7414582 77.0112219,71.585605 Z M42.5390751,82.1917701 C41.0814237,83.1438435 39.4583412,83.70766 38.0859375,83.7388894 C37.1490568,83.752394 36.4561026,83.5337885 36.2054237,83.1497518 C35.9539008,82.7657151 36.0374604,82.0145224 36.4214971,81.1907426 C37.0021944,79.9466325 38.1703412,78.6864857 39.6288366,77.7344123 C41.087332,76.7823389 42.7095705,76.2185224 44.0819742,76.1872931 C44.1199558,76.186449 44.1579375,76.185605 44.1959191,76.185605 C45.0517723,76.185605 45.7227815,76.4084307 45.963332,76.7764307 C46.5414971,77.6635132 45.4721026,80.2758068 42.5390751,82.1917701 Z M68.3978274,76.4928343 C65.4639558,78.4079536 62.6423412,78.3387426 62.0624879,77.450816 C61.811809,77.0667793 61.8945246,76.3155866 62.2794054,75.4918068 C62.8601026,74.2468527 64.0282494,72.9875499 65.4867448,72.0354765 C66.9452402,71.0834032 68.5674788,70.5195866 69.9398824,70.4883573 C69.9778641,70.4875132 70.0158457,70.4866692 70.0538274,70.4866692 C70.9096806,70.4866692 71.5806898,70.7094949 71.8212402,71.0774949 C72.4002494,71.9645775 71.3300109,74.5777151 68.3978274,76.4928343 Z" id="Shape" stroke="#01013F" stroke-width="0.3" fill="#01013F" fill-rule="nonzero"></path>
                <path d="M103.460901,98.1087812 C103.974766,92.3967998 105.925016,86.5890112 109.601367,79.8292251 C111.832184,75.7277309 114.465555,71.6855465 117.013535,67.7771887 C117.734777,66.6715953 118.451444,65.5705634 119.157438,64.4740943 C119.685027,63.654404 120.252261,62.8453584 120.842368,62.0697702 C121.034496,61.8173239 121.235773,61.5542318 121.440099,61.2850571 C126.533011,68.0615713 135.143691,80.3690956 137.423303,87.8405982 C138.35802,90.9003703 139.760858,92.7386384 136.522132,100.143227 C137.099047,99.7080317 136.889615,101.974557 136.522132,100.773156 C134.387378,93.7791725 132.23492,104.938786 130.85343,103.206639 C130.395982,102.583126 129.750982,102.093441 128.983996,101.825787 C127.785484,101.407578 126.483285,101.596152 125.469277,102.285057 C125.115518,102.523817 124.805978,102.817324 124.551333,103.151891 C123.326899,104.684819 117.659475,66.848728 106.262002,100.773156 C105.882321,102.02018 105.219023,104.194869 104.926256,106.806017 C103.624057,103.85726 103.218454,100.803571 103.460901,98.1087812 Z" id="Path" fill="#2DFFE3"></path>
                <path d="M222.86422,85.1023853 C220.083963,87.0909358 216.943303,88.0303486 214.66356,87.555156 C213.681945,87.350055 212.97633,86.8976514 212.566972,86.2097615 C211.225798,83.9612477 213.029505,79.0953761 217.759486,75.710789 C220.061174,74.0640734 222.610165,73.135633 224.712661,73.135633 C225.149872,73.135633 225.56767,73.1761468 225.959303,73.2580183 C226.940917,73.4631193 227.646532,73.9155229 228.05589,74.6034128 C229.397908,76.8519266 227.594202,81.7169541 222.86422,85.1023853 Z" id="Path" fill="#2DFFE3"></path>
                <path d="M74.0232544,143.847541 C74.0232544,135.246352 76.4033738,126.829684 80.816925,119.546994 C81.3246995,120.609734 81.9702148,121.650285 82.7581406,122.66164 C89.1339187,130.849411 104.068321,136.139755 120.808533,136.139755 C137.548744,136.139755 152.484314,130.849411 158.858925,122.66164 C158.858925,122.660472 158.860092,122.659305 158.86126,122.658137 C159.66436,121.62576 160.321548,120.564188 160.833992,119.479259 C162.622291,122.408218 164.075577,125.518193 165.182175,128.785826 C164.529656,129.41296 163.913323,130.084472 163.343681,130.809704 C159.986534,135.082854 158.578773,140.440933 159.367866,145.747627 C154.199074,145.087794 149.006935,146.507895 144.84552,149.781368 C140.095787,153.514973 137.372482,159.122971 137.372482,165.166576 C137.372482,171.210181 140.095787,176.817011 144.84552,180.551784 C146.541603,181.885464 148.409279,182.904994 150.376175,183.608038 C142.976677,188.306283 133.06282,190.686354 120.84005,190.686354 C89.3370286,190.686354 74.0232544,175.365378 74.0232544,143.847541 Z" id="Path" fill="#2DFFE3"></path>
                <path d="M228.364147,30.3764404 L192.795596,38.5121101 C191.50422,38.808367 190.683817,40.0431927 190.86444,41.3320367 C190.84756,41.4518899 190.828147,74.598055 190.828147,74.598055 C190.358018,74.4157431 189.865101,74.2629725 189.343486,74.1540917 C185.667706,73.3860183 181.111596,74.6157798 177.158128,77.4449908 C170.533284,82.186789 167.63655,89.7468257 170.562826,94.6557431 C171.710716,96.5818349 173.581945,97.8647706 175.973945,98.3652844 C176.694752,98.5155229 177.449321,98.5897982 178.226679,98.5897982 C181.412917,98.5897982 184.980661,97.3482202 188.158459,95.0735413 C193.132367,91.5133945 196.004624,86.3647706 195.888147,81.9411743 C195.888147,81.9276697 195.892367,81.9141651 195.892367,81.9006606 L195.892367,42.9990092 L227.481284,35.774055 L227.481284,65.7457982 C227.010312,65.5634862 226.518239,65.4098716 225.99578,65.3009908 C222.318312,64.5371376 217.764734,65.7635229 213.811266,68.5927339 C207.186422,73.3336881 204.289688,80.8937248 207.215963,85.8034862 C208.363853,87.729578 210.235083,89.0125138 212.627083,89.5130275 C213.34789,89.6632661 214.102459,89.7375413 214.879817,89.7375413 C218.066055,89.7375413 221.633798,88.4959633 224.811596,86.2212844 C229.785505,82.6611376 232.657761,77.5125138 232.541284,73.0889174 C232.541284,73.0754128 232.545505,73.0619083 232.545505,73.0484037 L232.545505,32.8452477 C232.418055,30.2835963 230.327376,29.8877431 228.364147,30.3764404 Z M185.211083,90.9537982 C182.43167,92.9423486 179.287633,93.8800734 177.010422,93.4065688 C176.028807,93.2014679 175.323193,92.7490642 174.913835,92.0611743 C173.573505,89.8126606 175.376367,84.947633 180.106349,81.5622018 C182.408037,79.9154862 184.957872,78.9878899 187.060367,78.9878899 C187.497578,78.9878899 187.915376,79.0275596 188.307009,79.1102752 C189.289468,79.3153761 189.995083,79.7677798 190.403596,80.4548257 C191.744771,82.7033394 189.941064,87.569211 185.211083,90.9537982 Z M221.86422,82.1023853 C219.083963,84.0909358 215.943303,85.0303486 213.66356,84.555156 C212.681945,84.350055 211.97633,83.8976514 211.566972,83.2097615 C210.225798,80.9612477 212.029505,76.0953761 216.759486,72.710789 C219.061174,71.0640734 221.610165,70.135633 223.712661,70.135633 C224.149872,70.135633 224.56767,70.1761468 224.959303,70.2580183 C225.940917,70.4631193 226.646532,70.9155229 227.05589,71.6034128 C228.397908,73.8519266 226.594202,78.7169541 221.86422,82.1023853 Z" id="Shape" stroke="#01013F" stroke-width="0.3" fill="#01013F" fill-rule="nonzero"></path>
                <g id="aromatherapy" transform="translate(62.000000, 59.000000)">
                    <path d="M35.6092408,118.54826 C25.5305113,112.270014 19.6304602,102.135882 18.8453129,98.3520149 C18.5145438,96.7561606 16.951116,95.7307443 15.3544969,96.0622612 C13.7567336,96.3926352 12.7312349,97.9541945 13.0620039,99.5489057 C14.2065337,105.06352 21.1709974,116.506573 32.4846743,123.553024 C32.9710994,123.855962 33.5113175,124 34.0446685,124 C35.0301086,124 35.992658,123.507297 36.5523333,122.611058 C37.4153086,121.228975 36.9929772,119.409061 35.6092408,118.54826 Z" id="Path" fill="#000000" fill-rule="nonzero"></path>
                    <path d="M47.89583,122.274106 C47.5183691,120.689859 45.9101069,119.706415 44.3041609,120.078776 C42.6982145,120.451137 41.7024584,122.037668 42.0799193,123.621916 L42.1042342,123.726999 C42.4272761,125.083946 43.6546034,126 45.0092951,126 C45.2362349,126 45.4654902,125.974871 45.6947459,125.921187 C47.3006919,125.548826 48.2976061,123.963437 47.9201449,122.37919 L47.89583,122.274106 Z" id="Path" fill="#000000" fill-rule="nonzero"></path>
                    <path d="M145.526962,90.7813683 C141.109909,87.3081931 135.532562,85.9207917 130.052101,86.8936076 C130.889053,81.5390321 129.487129,76.1225609 126.099632,71.8097041 C122.366615,67.0589052 116.762421,64.333152 110.721657,64.333152 C107.754387,64.333152 104.894508,64.9941528 102.307777,66.2262308 C100.288353,60.8459626 97.4132996,55.8627622 93.7316435,51.3688894 C92.8374939,48.0054919 90.572937,44.8055932 87.0488662,41.9747337 C83.3987276,39.0434392 78.5369338,36.6166543 72.896553,34.8929134 C72.605896,31.1990153 71.6720581,28.1240756 71.2063064,26.5977007 C68.2775574,16.9746468 55.6462327,1.25893851 55.5201646,1.1047825 C54.9481887,0.405242758 54.0925598,0 53.190239,0 C53.1844023,0 53.1785659,0 53.1727295,0 C52.2634048,0.00583915701 51.4042739,0.421592458 50.8369675,1.13164304 C50.724907,1.2717846 47.9840928,4.88042997 47.9560777,4.91663298 C47.4074477,5.63952995 46.8821641,6.391623 46.3918992,7.15539466 C45.8584444,7.98806903 45.3156509,8.82307925 44.7705229,9.66159278 C42.7557678,12.7622249 40.6733093,15.9679631 38.8511582,19.3278572 C35.8523711,24.8599453 34.1586228,29.7520536 33.5609666,34.6278122 C27.6917954,36.3246929 22.6222229,38.7736666 18.8098296,41.7715282 C15.1059951,44.6841372 12.7515564,47.9926458 11.8597412,51.4786671 C4.20927444,60.8739909 0,72.6996032 0,84.8475408 C0,100.748937 3.78087623,113.265914 11.238739,122.049286 C20.0635071,132.441951 34.0605698,137.712442 52.8400498,137.712442 C68.055771,137.712442 80.1851577,134.233427 88.8920288,127.371162 C89.1453323,127.184307 90.1165237,126.453235 91.0211792,125.620561 C91.1367417,125.607714 91.2523042,125.599539 91.3678664,125.585525 C90.5787734,130.892219 91.9865342,136.250298 95.3436814,140.523448 C99.075531,145.275415 104.680893,148 110.721657,148 C116.762421,148 122.366615,145.275415 126.099632,140.523448 C129.487129,136.211759 130.889053,130.79412 130.052101,125.440712 C135.532562,126.41236 141.109909,125.024959 145.526962,121.551784 C150.275528,117.818179 153,112.210181 153,106.166576 C153,100.122971 150.276695,94.5161408 145.526962,90.7813683 L145.526962,90.7813683 Z M88.1437913,54.6552092 C88.1437913,55.3687634 88.0282288,56.0823176 87.8099441,56.7935359 C83.515457,53.097302 77.2762527,50.1858611 69.8218919,48.4083991 C70.0985413,47.9879744 70.3635178,47.5605425 70.6051485,47.1167609 C71.6673889,45.1664577 72.3035659,43.1390764 72.6479187,41.1432271 C82.0469971,44.3349511 88.1437913,49.5517208 88.1437913,54.6552092 Z M59.0220567,48.1795012 C58.105728,49.8670391 56.2695693,51.1154668 53.5661086,51.889749 C53.4949036,51.9107701 53.4236985,51.9247846 53.3513259,51.9352951 C53.1563872,51.8967562 52.9544448,51.8745671 52.7490005,51.8745671 C52.6929702,51.8745671 52.6392747,51.8804062 52.5844116,51.8839099 C49.9334792,51.1189704 48.1370088,49.8997388 47.2451933,48.2565789 C45.7101975,45.4327266 46.9031753,41.514602 47.352585,40.039612 C48.1078262,37.554435 50.7459182,33.4389445 53.170395,30.0860575 C55.4069365,33.1785147 58.1897734,37.3991115 58.992874,40.039612 C59.3885879,41.3382572 60.5920715,45.2914173 59.0220567,48.1795012 Z M41.5359422,53.4021101 C43.8635329,55.166726 46.6241914,56.564638 49.7373733,57.484901 L49.7373733,62.9364077 C49.7373733,64.6005887 51.0856018,65.9494513 52.7490005,65.9494513 C54.4123994,65.9494513 55.7606277,64.6005887 55.7606277,62.9364077 L55.7606277,57.6448958 C55.868019,57.6180353 55.9765776,57.5958464 56.0816345,57.5654823 C59.5029832,56.5914983 62.423561,55.2403001 64.8305283,53.5294053 C73.2467422,55.0078989 80.2902146,58.0092639 84.3955994,61.8129394 C78.3384934,67.448966 66.1215591,71.1136677 52.8085327,71.1136677 C39.4955064,71.1136677 27.2774048,67.4477979 21.2202988,61.8117716 C25.4517517,57.8819687 32.7718735,54.8327218 41.5359422,53.4021101 Z M39.4453125,36.2382724 C39.8386916,31.8518412 41.331665,27.3918362 44.1460191,22.200759 C45.8537749,19.0510774 47.8696975,15.946942 49.8202515,12.9455767 C50.372383,12.0965526 50.921013,11.2510316 51.4614717,10.4090144 C51.8653564,9.77954548 52.2995911,9.15825093 52.7513352,8.56264944 C52.8984145,8.36878709 53.0524978,8.16674945 53.2089158,7.96004072 C57.107689,13.1639641 63.699417,22.6153445 65.4445266,28.3529738 C66.1600801,30.7026804 68.2553786,37.5988133 65.776039,43.2850571 C65.5951079,41.0497993 65.0359727,39.2069377 64.7546538,38.2843392 C63.1204375,32.9134138 56.6594468,24.6392221 55.6018752,23.3090454 C55.251686,22.8302282 54.7579195,22.4541818 54.1707688,22.2486409 C53.2532729,21.9274831 52.2564011,22.072296 51.4801485,22.6013303 C51.2093355,22.7846824 50.972374,23.0100767 50.7774353,23.2670029 C49.8400954,24.444192 43.2390288,32.8655321 41.5896377,38.2843392 C41.2989807,39.2419729 40.7912063,40.9119933 40.5670852,42.9171854 C39.5702134,40.6527313 39.2597121,38.3076958 39.4453125,36.2382724 Z M33.6695251,40.8979792 C34.1387788,43.5268014 35.148491,45.9967962 36.6239548,48.2157046 C28.7960586,49.9686418 22.2615281,52.9501535 17.8059541,56.7912001 C17.5876694,56.0811495 17.4732742,55.3675953 17.4732742,54.6552092 C17.4732742,49.4676358 23.9797898,44.0523321 33.6695251,40.8979792 Z M6.02325439,84.8475408 C6.02325439,76.2463525 8.40337379,67.8296838 12.816925,60.5469939 C13.3246995,61.6097343 13.9702148,62.6502854 14.7581406,63.6616402 C21.1339187,71.8494111 36.0683213,77.1397549 52.8085327,77.1397549 C69.5487441,77.1397549 84.484314,71.8494111 90.8589248,63.6616402 C90.8589248,63.6604725 90.8600923,63.6593047 90.8612595,63.6581366 C91.6643601,62.6257604 92.3215483,61.5641882 92.8339919,60.479259 C94.6222915,63.4082176 96.0755766,66.5181925 97.1821748,69.7858265 C96.5296555,70.4129599 95.9133225,71.0844716 95.3436814,71.8097041 C91.9865342,76.082854 90.5787734,81.4409331 91.3678664,86.7476269 C86.1990737,86.0877938 81.006935,87.5078949 76.84552,90.7813683 C72.0957871,94.514973 69.3724824,100.122971 69.3724824,106.166576 C69.3724824,112.210181 72.0957871,117.817011 76.84552,121.551784 C78.541603,122.885464 80.4092788,123.904994 82.3761748,124.608038 C74.976677,129.306283 65.0628203,131.686354 52.8400498,131.686354 C21.3370286,131.686354 6.02325439,116.365378 6.02325439,84.8475408 Z M141.804451,116.813831 C138.518509,119.398275 134.303398,120.312699 130.241203,119.325869 L126.754486,118.476844 C125.733101,118.229261 124.656853,118.530565 123.913284,119.274483 C123.170883,120.018401 122.868553,121.095156 123.117187,122.117022 L123.873596,125.231668 C124.86113,129.294605 123.947136,133.511698 121.363907,136.800354 C118.780678,140.089009 114.901749,141.975081 110.721657,141.975081 C106.541565,141.975081 102.662636,140.089009 100.079407,136.800354 C97.4961777,133.511698 96.5810166,129.295773 97.56855,125.231668 L98.2677612,122.357598 C98.5163955,121.335732 98.2140654,120.258978 97.4704971,119.51506 C96.8996887,118.943983 96.1304397,118.632168 95.3413467,118.632168 C95.1043852,118.632168 94.8650893,118.660196 94.6292954,118.717421 L92.1301118,119.325869 C91.3702012,119.511556 90.6032866,119.629509 89.838707,119.683229 C89.6671143,119.675055 89.496689,119.683229 89.3262634,119.704251 C86.1850661,119.80235 83.1010667,118.806177 80.566864,116.814999 C77.2797546,114.230555 75.3957368,110.348634 75.3957368,106.166576 C75.3957368,101.984518 77.2797546,98.1037648 80.566864,95.5193209 C83.8539734,92.9348767 88.067917,92.0204532 92.1301118,93.0084511 L94.6292954,93.616899 C95.6495132,93.8644827 96.7269287,93.5631782 97.4704971,92.8192601 C98.2140654,92.0753418 98.5152283,90.9985876 98.2677612,89.976722 L97.56855,87.1026522 C96.5810166,83.0385469 97.4961777,78.8226217 100.07824,75.5339664 C102.661469,72.245311 106.541565,70.3592391 110.721657,70.3592391 C114.901749,70.3592391 118.780678,72.245311 121.363907,75.5339664 C123.947136,78.8214536 124.86113,83.0385469 123.873596,87.1026522 L123.11602,90.2172984 C122.867386,91.237996 123.169716,92.3159183 123.913284,93.0598363 C124.656853,93.8025866 125.733101,94.1050589 126.754486,93.8563077 L130.241203,93.0084511 C134.303398,92.0192851 138.518509,92.9348767 141.804451,95.5193209 C145.09156,98.1037648 146.976746,101.984518 146.976746,106.166576 C146.976746,110.349801 145.09156,114.230555 141.804451,116.813831 Z" id="Shape" fill="#000000" fill-rule="nonzero"></path>
                    <path d="M117.517493,100.283285 C116.150146,99.443918 114.587463,99 113,99 C111.413994,99 109.853499,99.4423792 108.487609,100.279438 C107.01895,101.178814 105.825073,102.492104 105.034257,104.076976 C104.357872,105.43258 104,106.961289 104,108.5 C104,110.038711 104.357872,111.568189 105.034257,112.923024 C105.825073,114.507896 107.01895,115.821186 108.487609,116.720562 C109.853499,117.557621 111.413994,118 113,118 C114.588192,118 116.150875,117.556082 117.517493,116.716715 C118.762391,115.952745 119.828717,114.871032 120.601312,113.586978 C121.516035,112.065962 122,110.307216 122,108.5 C122,106.692784 121.516035,104.933269 120.601312,103.413022 C119.828717,102.128968 118.762391,101.046485 117.517493,100.283285 Z" id="Path" fill="#2DFFE3"></path>
                    <path d="M117.778183,92.0262388 C115.575235,90.7009231 113.05758,90 110.5,90 C107.944768,90 105.430637,90.6984934 103.230037,92.020165 C100.863864,93.4402332 98.9403952,95.5138482 97.6663023,98.0162777 C96.5765712,100.156705 96,102.570456 96,105 C96,107.429543 96.5765712,109.844509 97.6663023,111.983722 C98.9403952,114.486152 100.863864,116.559767 103.230037,117.979835 C105.430637,119.301506 107.944768,120 110.5,120 C113.058755,120 115.576409,119.299077 117.778183,117.973761 C119.783851,116.767492 121.501822,115.059524 122.746558,113.03207 C124.220279,110.630466 125,107.853498 125,105 C125,102.146501 124.220279,99.3683188 122.746558,96.96793 C121.501822,94.940476 119.783851,93.2312922 117.778183,92.0262388 Z M117.631398,109.672012 C116.905693,110.853984 115.902859,111.851312 114.733277,112.555879 C113.453312,113.32483 111.99016,113.731778 110.5,113.731778 C109.012188,113.731778 107.549036,113.326045 106.271421,112.558309 C104.891642,111.729835 103.770206,110.521137 103.026887,109.062196 C102.384556,107.801263 102.059281,106.434645 102.059281,105 C102.059281,103.565354 102.384556,102.198736 103.026887,100.939018 C103.770206,99.4788627 104.891642,98.2701652 106.271421,97.4416908 C107.549036,96.6739551 109.012188,96.2682216 110.5,96.2682216 C111.988986,96.2682216 113.453312,96.6751698 114.733277,97.4453352 C115.902859,98.1486877 116.905693,99.1460155 117.631398,100.327988 C118.487447,101.722546 118.939545,103.338192 118.939545,105 C118.939545,106.661807 118.487447,108.277454 117.631398,109.672012 L117.631398,109.672012 Z" id="Shape" fill="#000000" fill-rule="nonzero"></path>
                </g>
            </g>
        </g>
    </g>
</svg>