<?xml version="1.0" encoding="UTF-8"?>
<svg width="53px" height="53px" viewBox="0 0 53 53" version="1.1" xmlns="http://www.w3.org/2000/svg" xmlns:xlink="http://www.w3.org/1999/xlink">
    <title>B7A24748-00C9-4B3A-BA9C-E36B6D7E2550</title>
    <g id="Page-1" stroke="none" stroke-width="1" fill="none" fill-rule="evenodd">
        <g id="AKF-Home---desktop" transform="translate(-1028.000000, -5338.000000)" fill-rule="nonzero">
            <g id="Group-23" transform="translate(818.000000, 5335.000000)">
                <g id="ico/phone" transform="translate(210.000000, 3.000000)">
                    <path d="M51.3529412,28 C50.4433529,28 49.7058824,27.2625294 49.7058824,26.3529412 C49.7058824,13.6382647 39.3617353,3.29411765 26.6470588,3.29411765 C25.7374706,3.29411765 25,2.55664706 25,1.64705882 C25,0.737470588 25.7374706,0 26.6470588,0 C33.6862794,0 40.3040588,2.74111765 45.2814706,7.71852941 C50.2588824,12.6959412 53,19.3137206 53,26.3529412 C53,27.2625294 52.2625294,28 51.3529412,28 Z" id="Path" fill="#2DFFE3" opacity="0.476632254"></path>
                    <path d="M44.3846154,28 C43.4925192,28 42.7692308,27.2767115 42.7692308,26.3846154 C42.7692308,17.4773846 35.5226154,10.2307692 26.6153846,10.2307692 C25.7232885,10.2307692 25,9.50748077 25,8.61538462 C25,7.72328846 25.7232885,7 26.6153846,7 C37.3040817,7 46,15.6959183 46,26.3846154 C46,27.2767115 45.2767115,28 44.3846154,28 Z" id="Path" fill="#2DFFE3" opacity="0.6617141"></path>
                    <path d="M38.3333333,28 C37.4129167,28 36.6666667,27.25375 36.6666667,26.3333333 C36.6666667,20.8192708 32.1807292,16.3333333 26.6666667,16.3333333 C25.74625,16.3333333 25,15.5870833 25,14.6666667 C25,13.74625 25.74625,13 26.6666667,13 C34.01875,13 40,18.98125 40,26.3333333 C40,27.25375 39.25375,28 38.3333333,28 Z" id="Path" fill="#2DFFE3"></path>
                    <path d="M51.6905784,36.4309011 L39.5590198,33.8317253 C39.0104083,33.7137221 38.4379892,33.882446 38.0415398,34.2799305 L33.5988223,38.7216124 C25.2682094,34.5314636 18.4685329,27.7317878 14.2783836,19.4011757 L18.7200661,14.9584587 C19.1175506,14.5620093 19.2862745,13.9895903 19.1682712,13.4409789 L16.5690952,1.30942151 C16.4055469,0.545506035 15.7306513,0 14.9491388,0 C12.4389826,0 10.0613214,0.594156478 7.88343748,1.76487247 C5.84011865,2.86416546 4.05143834,4.45617359 2.7099281,6.37113785 C1.37359345,8.27782118 0.491674686,10.4908988 0.157332244,12.7691887 C-0.199782749,15.202746 0.0517504196,17.6269872 0.904685938,19.9746299 C3.55975828,27.2825476 7.88343748,34.0656615 13.4088863,39.5911097 C18.934335,45.1165579 25.7174497,49.4402367 33.0253681,52.0953088 C34.6836238,52.6977462 36.3801788,53 38.0912254,53 C38.80235,53 39.51658,52.9472091 40.23081,52.8426624 C42.5091001,52.50832 44.722178,51.6264013 46.6288615,50.2900668 C48.543826,48.9485567 50.1358342,47.1598766 51.2351274,45.1165579 C52.4058435,42.9386743 53,40.5610132 53,38.0508574 C53,37.2693449 52.4544939,36.5944494 51.6905784,36.4309011 L51.6905784,36.4309011 Z M8.44964589,5.34844342 C8.39789009,5.36086481 8.34613429,5.37432132 8.29541361,5.38777782 C9.72977374,4.37967853 11.3781958,3.71710089 13.1442071,3.44817781 C13.4140618,3.40708371 13.6692179,3.58553767 13.7264598,3.85249404 L15.6820008,12.9782821 C15.7187474,13.1499043 15.66606,13.3285653 15.5419496,13.4526757 L14.4966896,14.4979356 C14.2066501,14.7879751 13.7106226,14.6415062 13.6247079,14.2403988 L12.2257488,7.71471818 C11.8582826,6.00263662 10.1503413,4.93336198 8.44964589,5.34844342 L8.44964589,5.34844342 Z M32.2086616,42.4542401 C31.2377229,43.4251787 29.747156,43.6384126 28.5360703,42.9904301 C20.6785054,38.7878598 14.2121362,32.3214913 10.0095656,24.4639272 C9.36158301,23.2528417 9.57481689,21.7622749 10.5457556,20.7913363 L10.5460662,20.7910257 C10.7829007,20.5541912 11.1825589,20.6173333 11.3332718,20.9165853 C15.8384068,29.8607105 23.13939,37.1616929 32.0834126,41.666724 C32.3825611,41.8174368 32.4458067,42.217095 32.2089721,42.4539295 L32.2086616,42.4542401 Z M47.6122216,44.7045819 C47.6287835,44.6455803 47.6432751,44.5865786 47.6577667,44.5265419 C48.0666375,42.8341276 46.9880467,41.139643 45.285281,40.7742471 L38.7594962,39.3753916 C38.3584923,39.2893735 38.2120234,38.793346 38.5019594,38.50341 L39.5472194,37.4581501 C39.6713298,37.3340397 39.8499909,37.2812488 40.0216131,37.3180989 L49.1475056,39.2736397 C49.414462,39.3308816 49.5929159,39.5859341 49.5518218,39.8558923 C49.2827952,41.6217999 48.620321,43.2702219 47.6122216,44.7045819 L47.6122216,44.7045819 Z" id="Shape" fill="#01013F"></path>
                </g>
            </g>
        </g>
    </g>
</svg>