<?xml version="1.0" encoding="UTF-8"?>
<svg width="264px" height="285px" viewBox="0 0 264 285" version="1.1" xmlns="http://www.w3.org/2000/svg" xmlns:xlink="http://www.w3.org/1999/xlink">
    <title>94EAC1C0-9928-4CC4-A7A2-8559ECD26AFF</title>
    <g id="Page-1" stroke="none" stroke-width="1" fill="none" fill-rule="evenodd">
        <g id="AKF-Home---desktop" transform="translate(-931.000000, -1576.000000)" fill-rule="nonzero">
            <g id="ico/2" transform="translate(931.000000, 1576.000000)">
                <polygon id="Path-4-Copy-2" fill="#2DFFE3" points="151 2.27373675e-13 151 8 7.99940272 8 8 284.201551 0 284.201551 0 2.27373675e-13"></polygon>
                <polygon id="Path-4-Copy-3" fill="#2DFFE3" transform="translate(247.000000, 217.000000) scale(-1, -1) translate(-247.000000, -217.000000) " points="264 200 264 208 237.999403 208 238 234 230 234 230 200"></polygon>
                <g id="Back-Exercises" transform="translate(36.000403, 40.000000)">
                    <path d="M84.7343911,35.0135644 C93.3976288,35.0135644 100.422178,41.9864854 100.422178,50.5895784 L100.422178,52.4056239 C100.422178,61.0091617 93.3976288,67.9838614 84.7343911,67.9838614 L68.8826904,67.9838614 C60.218557,67.9838614 53.1944554,61.008717 53.1944554,52.4056239 L53.1944554,50.5895784 C53.1944554,41.9864854 60.218557,35.0135644 68.8826904,35.0135644 L84.7343911,35.0135644 L84.7343911,35.0135644 Z" id="Path" fill="#2DFFE3"></path>
                    <path d="M120.377955,97.389802 C129.041193,97.389802 136.065743,104.362723 136.065743,112.965816 L136.065743,114.781862 C136.065743,123.385399 129.041193,130.360099 120.377955,130.360099 L104.526255,130.360099 C95.8621213,130.360099 88.8380198,123.384955 88.8380198,114.781862 L88.8380198,112.965816 C88.8380198,104.362723 95.8621213,97.389802 104.526255,97.389802 L120.377955,97.389802 L120.377955,97.389802 Z" id="Path" fill="#2DFFE3"></path>
                    <g id="Group" fill="#01013F" stroke="#01013F" stroke-width="0.8">
                        <path d="M79.6232673,22.1506931 C80.9821782,21.8290099 81.8242574,20.4656436 81.5016832,19.1058416 C81.1791089,17.7460396 79.8175248,16.9039604 78.4559406,17.2265347 C78.3766337,17.2452475 75.4832673,17.9278218 71.4617822,18.8046535 C71.8057426,18.2976238 72.1514851,17.7647525 72.4981188,17.1748515 C76.6630693,10.0933663 79.1492079,4.12039604 79.2534653,3.87 C79.7881188,2.57881188 79.1741584,1.09960396 77.8829703,0.564950495 C76.5917822,0.032970297 75.1125743,0.644257426 74.5779208,1.93455446 C74.5538614,1.99336634 72.1131683,7.84871287 68.1362376,14.6094059 C65.3257426,19.3883168 62.8609901,20.4986139 62.2505941,20.7106931 C56.9227723,21.7434653 51.5940594,22.6283168 48.5705941,22.7209901 C38.5823762,23.0284158 28.8712871,26.8440594 21.929703,33.1912871 C20.8978218,34.1340594 20.8265347,35.7344554 21.7693069,36.7663366 C22.2683168,37.3125743 22.9517822,37.5888119 23.6370297,37.5888119 C24.2465347,37.5888119 24.8587129,37.369604 25.3443564,36.9258416 C31.4055446,31.3832673 39.9288119,28.049703 48.7274257,27.779703 C56.8176238,27.5319802 78.6956436,22.3707921 79.6232673,22.1506931 Z" id="Path"></path>
                        <path d="M19.5130693,39.4208911 C18.3412871,38.6572277 16.7738614,38.990495 16.0119802,40.1613861 C9.25485149,50.5461386 7.81841584,64.579901 11.8363366,80.8155446 C7.75247525,85.4028713 -6.21891089,103.810099 3.37188119,131.841089 C3.7309901,132.891683 4.71386139,133.55198 5.76623762,133.55198 C6.0380198,133.55198 6.31425743,133.508317 6.5860396,133.414752 C7.90841584,132.96297 8.61326733,131.523861 8.16059406,130.201485 C-1.6770297,101.453168 15.6546535,84.0751485 16.3924752,83.3542574 C17.050099,82.7171287 17.3129703,81.7752475 17.079505,80.889505 C12.9528713,65.2740594 14.0212871,52.4994059 20.2535644,42.9210891 C21.0154455,41.750198 20.6839604,40.1827723 19.5130693,39.4208911 Z" id="Path"></path>
                        <path d="M79.0975248,47.1974257 C78.150297,53.6809901 73.9621782,71.2577228 66.0733663,74.6812871 C64.7919802,75.2382178 64.2038614,76.7272277 64.7590099,78.009505 C65.1733663,78.9629703 66.1045545,79.5332673 67.0820792,79.5332673 C67.4180198,79.5332673 67.7593069,79.4655446 68.0872277,79.3238614 C73.3054455,77.059604 77.5951485,70.9975248 80.8378218,61.3078218 C83.1466337,54.4054455 84.0662376,48.1892079 84.1036634,47.9272277 C84.3050495,46.5442574 83.3471287,45.2610891 81.9650495,45.059703 C80.5811881,44.8609901 79.299802,45.8153465 79.0975248,47.1974257 Z" id="Path"></path>
                        <path d="M143.800396,167.922178 C143.658713,167.98901 129.360297,174.566139 101.135941,174.566139 C77.5514851,174.566139 63.490099,169.340792 59.4516832,167.595149 C57.0537624,110.99495 54.3207921,89.419901 49.0544554,85.3235644 C42.8774257,80.519703 42.1440594,75.3362376 41.1291089,68.1629703 L40.9312871,66.7746535 C40.7307921,65.3916832 39.4458416,64.430198 38.0646535,64.6324752 C36.6816832,64.8329703 35.7228713,66.1161386 35.9233663,67.4991089 L36.1194059,68.8722772 C37.1655446,76.270099 38.1537624,83.2571287 45.9481188,89.3183168 C46.430198,89.6925743 48.9448515,92.7026733 51.1663366,115.239208 C52.7506931,131.297525 53.7531683,152.454653 54.45,169.092178 C54.4606931,169.337228 54.5159406,169.567129 54.589901,169.78901 C54.7387129,170.50099 55.1806931,171.146139 55.8739604,171.512376 C56.5012871,171.843861 71.580297,179.627525 101.135941,179.627525 C130.638119,179.627525 145.35802,172.786634 145.970198,172.495248 C147.229307,171.896436 147.764851,170.390495 147.167822,169.129604 C146.570792,167.866931 145.062178,167.328713 143.800396,167.922178 Z" id="Path"></path>
                        <path d="M152.814653,23.5541584 C149.792079,23.4614851 144.463366,22.5766337 139.133762,21.5438614 C138.522475,21.3317822 136.058614,20.2205941 133.24901,15.4416832 C129.27297,8.68188119 126.831386,2.82564356 126.807327,2.76772277 C126.271782,1.47742574 124.793465,0.865247525 123.501386,1.39811881 C122.210198,1.93277228 121.597129,3.4119802 122.130891,4.70316832 C122.235149,4.95356436 124.721287,10.9265347 128.886238,18.0071287 C129.23198,18.5952475 129.576832,19.1290099 129.920792,19.6378218 C125.900198,18.7609901 123.007723,18.0784158 122.927525,18.059703 C121.566832,17.7380198 120.204356,18.580099 119.882673,19.9381188 C119.56099,21.2979208 120.402178,22.6621782 121.761089,22.9829703 C122.688713,23.2030693 144.567624,28.3633663 152.657822,28.6119802 C161.456436,28.8819802 169.978812,32.2146535 176.04,37.7572277 C176.525644,38.2009901 177.137822,38.420198 177.747327,38.420198 C178.432574,38.420198 179.11604,38.1430693 179.61505,37.5977228 C180.558713,36.5667327 180.487426,34.9663366 179.455545,34.0235644 C172.515743,27.6763366 162.805545,23.8606931 152.814653,23.5541584 Z" id="Path"></path>
                        <path d="M189.550693,81.6478218 C193.567723,65.4121782 192.131287,51.3775248 185.373267,40.9936634 C184.611386,39.8227723 183.043069,39.490396 181.872178,40.2531683 C180.701287,41.0150495 180.369802,42.5833663 181.131683,43.7542574 C187.277525,53.1980198 188.375347,66.3273267 184.307525,81.7226733 C184.073168,82.6075248 184.33604,83.550297 184.993663,84.1874257 C185.176337,84.3638614 203.104158,102.163366 193.224653,131.035545 C192.77198,132.357921 193.476832,133.79703 194.799208,134.248812 C195.07099,134.341485 195.347228,134.38604 195.618119,134.38604 C196.670495,134.38604 197.652475,133.724851 198.012475,132.674257 C207.60505,104.642376 193.633663,86.2351485 189.550693,81.6478218 Z" id="Path"></path>
                        <path d="M120.548317,62.1383168 C123.790099,71.8289109 128.079802,77.8909901 133.298911,80.1552475 C133.627723,80.2978218 133.968119,80.3646535 134.30495,80.3646535 C135.282475,80.3646535 136.213663,79.7952475 136.627129,78.8417822 C137.183168,77.560396 136.59505,76.069604 135.312772,75.5135644 C127.423069,72.09 123.236733,54.5132673 122.288614,48.029703 C122.087228,46.6476238 120.809406,45.6905941 119.420198,45.8919802 C118.038119,46.0933663 117.080198,47.3774257 117.281584,48.759505 C117.319901,49.0205941 118.238614,55.2368317 120.548317,62.1383168 Z" id="Path"></path>
                        <path d="M163.323267,65.4638614 C161.93495,65.2633663 160.657129,66.2221782 160.456634,67.6051485 L160.257921,68.9979208 C159.242079,76.1694059 158.509604,81.3519802 152.333465,86.1549505 C146.425545,90.750297 143.787921,107.667624 141.881881,153.199604 C141.82396,154.59505 142.907525,155.774851 144.303861,155.833663 C144.340396,155.835446 144.37604,155.835446 144.411683,155.835446 C145.759901,155.835446 146.88,154.771485 146.937921,153.410792 C147.733663,134.403861 149.389307,94.8555446 155.440693,90.1488119 C163.233267,84.0876238 164.221485,77.1023762 165.269406,69.7072277 L165.465446,68.330495 C165.66505,66.9484158 164.705347,65.6643564 163.323267,65.4638614 Z" id="Path"></path>
                        <path d="M99.9971287,162.425941 C99.9989109,162.425941 100.001584,162.425941 100.003366,162.425941 C101.397921,162.425941 102.529604,161.296931 102.533168,159.901485 L102.806741,54.1969307 C102.810297,52.799703 101.680396,51.6635644 100.283168,51.66 C100.280495,51.66 100.278713,51.66 100.276931,51.66 C98.8823762,51.66 97.749802,52.7890099 97.7471287,54.1844554 L97.4726685,159.88901 C97.47,161.287129 98.599901,162.422376 99.9971287,162.425941 Z" id="Path"></path>
                    </g>
                </g>
            </g>
        </g>
    </g>
</svg>